<?xml version="1.0" encoding="utf-8"?>
<!-- Generator: Adobe Illustrator 26.4.1, SVG Export Plug-In . SVG Version: 6.00 Build 0)  -->
<svg version="1.1" id="Ebene_1" xmlns="http://www.w3.org/2000/svg" xmlns:xlink="http://www.w3.org/1999/xlink" x="0px" y="0px"
	 viewBox="0 0 488.6 95.6" style="enable-background:new 0 0 488.6 95.6;" xml:space="preserve">
<style type="text/css">
	.st0{fill:#FFFFFF;}
</style>
<g>
	<path d="M476.4,55h-15.8l7.9-21L476.4,55z M471.6,25.7h-6.4l-17,45.1h6.3l3.9-10.3h20l3.9,10.3h6.3L471.6,25.7z M415.1,65.3v-34
		h10.7c3.1,0,6,0.8,8.7,2.3c2.6,1.5,4.7,3.6,6.3,6.2c1.5,2.6,2.3,5.5,2.3,8.6c0,3.1-0.8,6-2.3,8.6c-1.5,2.6-3.6,4.6-6.2,6.1
		c-2.6,1.5-5.5,2.2-8.7,2.2H415.1z M425.8,25.7h-16.6v45.1h16.6c4.2,0,8.1-1,11.6-2.9c3.5-2,6.3-4.6,8.4-8.1
		c2.1-3.4,3.1-7.2,3.1-11.4c0-4.2-1-8-3.1-11.5c-2.1-3.5-4.9-6.2-8.4-8.2C433.9,26.7,430,25.7,425.8,25.7 M371.3,25.7L371.3,25.7
		L371.3,25.7h-5.9v45.1h5.9V35.8L394,70.9h5.2V25.7h-5.9v33.7L371.3,25.7z M348.7,55h-15.8l7.9-21L348.7,55z M343.9,25.7h-6.4
		l-17,45.1h6.3l3.9-10.3h20l3.9,10.3h6.3L343.9,25.7z M299,48.6V31.3h9.6c1.5,0,3,0.4,4.3,1.2c1.3,0.8,2.4,1.8,3.2,3.1
		c0.8,1.3,1.2,2.7,1.2,4.3c0,1.5-0.4,3-1.2,4.3c-0.8,1.3-1.8,2.4-3.2,3.2c-1.3,0.8-2.8,1.2-4.3,1.2H299z M308.6,25.7h-15.5v45.1h5.9
		V54.2h9.6c2.6,0,5-0.6,7.2-1.9c2.2-1.3,3.9-3,5.2-5.2c1.3-2.2,1.9-4.6,1.9-7.2s-0.6-5-1.9-7.1c-1.3-2.2-3-3.9-5.2-5.2
		C313.6,26.4,311.2,25.7,308.6,25.7 M253.6,45V25.7h-5.9v45.1h5.9V50.5h23.5v20.4h5.9V25.7h-5.9V45H253.6z M226.1,71.6
		c3,0,5.7-0.5,8-1.6c2.3-1.1,4.2-2.6,5.5-4.5c1.3-2,2-4.2,2-6.9c0-2.6-0.7-4.8-2-6.4c-1.3-1.7-3-3-5-4c-2-1-4.6-2-7.9-3
		c-2.6-0.8-4.5-1.5-5.8-2.1c-1.3-0.6-2.3-1.3-3.1-2.2c-0.8-0.9-1.1-2-1.1-3.4c0-1.9,0.8-3.5,2.3-4.9c1.5-1.4,3.5-2,6.1-2
		c2.4,0,4.5,0.6,6.3,1.8c1.7,1.2,3,2.8,3.9,5l5.1-2.8c-1.4-3-3.4-5.4-6-7.1c-2.6-1.7-5.7-2.6-9.3-2.6c-2.6,0-5,0.5-7.1,1.5
		c-2.2,1-3.9,2.5-5.2,4.4c-1.3,1.9-1.9,4.2-1.9,6.7c0,2.6,0.6,4.7,1.8,6.3s2.8,2.9,4.7,3.8c1.9,0.9,4.4,1.8,7.4,2.7
		c3.8,1.2,6.6,2.3,8.3,3.5c1.8,1.2,2.6,2.7,2.6,4.5c0,1.3-0.4,2.5-1.1,3.6c-0.7,1.1-1.8,2.1-3.2,2.8c-1.4,0.7-3.2,1.1-5.3,1.1
		c-3.1,0-5.7-0.7-7.8-2.1c-2-1.4-3.5-3.4-4.4-5.9l-5,2.9c1.1,3.4,3.2,6,6.1,7.9C218.1,70.7,221.8,71.6,226.1,71.6 M197.4,55.6
		c0,3.1-1,5.6-2.9,7.4c-1.9,1.8-4.6,2.7-8,2.7c-3.3,0-5.9-0.9-7.9-2.8c-2-1.8-2.9-4.3-2.9-7.4V25.7h-5.9v29.9c0,3.2,0.7,6,2.1,8.4
		c1.4,2.4,3.4,4.3,5.9,5.6c2.5,1.3,5.4,2,8.7,2c3.3,0,6.2-0.7,8.7-2c2.5-1.3,4.5-3.2,5.9-5.6c1.4-2.4,2.1-5.2,2.1-8.4V25.7h-5.9
		V55.6z M140.4,48.6V31.3h9.6c1.5,0,3,0.4,4.3,1.2c1.3,0.8,2.4,1.8,3.2,3.1c0.8,1.3,1.2,2.7,1.2,4.3c0,1.5-0.4,3-1.2,4.3
		c-0.8,1.3-1.8,2.4-3.2,3.2c-1.3,0.8-2.8,1.2-4.3,1.2H140.4z M150,25.7h-15.5v45.1h5.9V54.2h9.6c2.6,0,5-0.6,7.2-1.9
		c2.2-1.3,3.9-3,5.2-5.2c1.3-2.2,1.9-4.6,1.9-7.2s-0.6-5-1.9-7.1c-1.3-2.2-3-3.9-5.2-5.2C154.9,26.4,152.6,25.7,150,25.7"/>
	<path class="st0" d="M52.3,92.8c25.1,0,45.4-19,45.4-42.4C97.7,27,77.4,8,52.3,8S7,27,7,50.4C7,73.8,27.3,92.8,52.3,92.8"/>
	<path d="M52.3,66.1c1.5,0,2.7-1.2,2.7-2.7c0-1.5-1.2-2.7-2.7-2.7c-1.5,0-2.7,1.2-2.7,2.7C49.7,64.9,50.9,66.1,52.3,66.1"/>
	<path d="M39.2,38.4c-2.2,2.2-5.5,2.5-7.4,0.7c-1.8-1.8-1.5-5.1,0.7-7.4c2.2-2.2,5.5-2.5,7.4-0.7C41.7,32.9,41.4,36.2,39.2,38.4
		 M42.8,48.7c6.3-6.3,7.1-15.7,1.8-21c-5.3-5.3-14.7-4.5-21,1.8c-6.3,6.3-7.1,15.7-1.8,21C27.1,55.8,36.5,55,42.8,48.7 M59,56.7
		H45.7c-1.5,0-2.7,1.2-2.7,2.7c0,0.9,0.4,1.6,1.1,2.1l0,0.1l5.4,3.2v2.3v0v0.3c-0.1,3.2-2.7,5.7-5.9,5.7c0,0,0,0-0.1,0
		c0,0,0,0-0.1,0c-1.6,0-3.1-0.6-4.2-1.7c-1.1-1.1-2.9-1.1-4,0c-1.1,1.1-1.1,2.9,0,4c2.2,2.2,5.1,3.4,8.2,3.4c0,0,0.1,0,0.1,0
		c0,0,0,0,0.1,0c3.5,0,6.6-1.6,8.7-4.1c2.1,2.5,5.2,4.1,8.7,4.1c0,0,0.1,0,0.1,0c0,0,0,0,0.1,0c3.1,0,6-1.2,8.2-3.4
		c1.1-1.1,1.1-2.9,0-4c-1.1-1.1-2.9-1.1-4,0c-1.1,1.1-2.6,1.7-4.2,1.7c0,0,0,0-0.1,0c0,0,0,0-0.1,0c-3.2,0-5.8-2.5-5.9-5.7v-2.5
		l5.4-3.2l0-0.1c0.6-0.5,1.1-1.2,1.1-2.1C61.7,57.9,60.5,56.7,59,56.7 M72.9,39.1c-1.8,1.8-5.1,1.5-7.4-0.7
		c-2.2-2.2-2.5-5.5-0.7-7.4c1.8-1.8,5.1-1.5,7.4,0.7C74.4,34,74.7,37.3,72.9,39.1 M82.9,50.5c5.3-5.3,4.5-14.7-1.8-21
		c-6.3-6.3-15.7-7.1-21-1.8c-5.3,5.3-4.5,14.7,1.8,21C68.2,55,77.6,55.8,82.9,50.5 M94.9,50.4C94.9,72.2,75.8,90,52.3,90
		C28.9,90,9.8,72.2,9.8,50.4c0-21.8,19.1-39.6,42.6-39.6C75.8,10.8,94.9,28.6,94.9,50.4 M99.6,5.1C92.3-2.1,80-1.6,72,6.3
		c-0.7,0.7-1.3,1.4-1.9,2.1c-5.5-2.1-11.5-3.2-17.8-3.2C46,5.2,40,6.4,34.5,8.4C34,7.7,33.3,7,32.7,6.3C24.7-1.6,12.4-2.1,5.1,5.1
		c-7.3,7.3-6.8,19.6,1.2,27.5c0.4,0.4,0.8,0.8,1.3,1.1c-2.2,5.1-3.4,10.7-3.4,16.6c0,24.9,21.6,45.2,48.2,45.2
		c26.6,0,48.2-20.3,48.2-45.2c0-5.9-1.2-11.5-3.4-16.6c0.4-0.4,0.9-0.7,1.3-1.1C106.3,24.7,106.8,12.4,99.6,5.1"/>
</g>
</svg>
